<svg width="162" height="99" viewBox="0 0 162 99" fill="none" xmlns="http://www.w3.org/2000/svg">
<path fill-rule="evenodd" clip-rule="evenodd" d="M36.0293 72.9654L29.891 66.2836L21.8845 72.4309L10.4086 57.9982L43.7689 15.5018L32.5598 2.94L20.817 10.1564L1.60144 0L22.6852 18.4418L29.891 13.8982L32.8267 17.64L1.60144 56.9291L21.8845 81.5182L29.0904 74.5691L28.8235 87.9327L44.5696 97.8218L34.9618 85.7945L36.0293 72.9654ZM28.5565 47.0398L36.0292 43.5652L33.6273 37.9525L27.489 45.7034L28.5565 47.0398ZM138.245 40.6272L141.448 45.4381L134.509 55.3272L124.634 40.6272H138.245Z" fill="white"/>
<path d="M85.0879 98.112C82.5959 98.112 81.7839 97.3 81.7839 95.62V91.35C81.7839 89.67 82.5959 88.858 85.0879 88.858H85.1719C87.6639 88.858 88.4759 89.67 88.4759 91.35V91.546C88.4759 91.616 88.4199 91.672 88.3499 91.672H87.0619C86.9919 91.672 86.9359 91.616 86.9359 91.546V91.35C86.9359 90.538 86.6419 90.258 85.1719 90.258H85.0879C83.6179 90.258 83.3239 90.538 83.3239 91.35V95.62C83.3239 96.432 83.6179 96.712 85.0879 96.712H85.1719C86.6419 96.712 86.9359 96.432 86.9359 95.62V94.528H85.3259C85.2559 94.528 85.1999 94.472 85.1999 94.388V93.296C85.1999 93.212 85.2559 93.156 85.3259 93.156H88.3499C88.4199 93.156 88.4759 93.212 88.4759 93.296V95.62C88.4759 97.3 87.6639 98.112 85.1719 98.112H85.0879Z" fill="white"/>
<path d="M100.253 98C100.169 98 100.113 97.944 100.113 97.874V89.096C100.113 89.026 100.169 88.97 100.253 88.97H103.753C105.531 88.97 106.315 89.74 106.315 91.406V92.4C106.315 93.73 105.811 94.486 104.719 94.738L106.385 97.832C106.441 97.93 106.385 98 106.301 98H104.831C104.761 98 104.705 97.972 104.663 97.902L103.109 94.836H101.653V97.874C101.653 97.944 101.597 98 101.527 98H100.253ZM101.653 93.436H103.389C104.579 93.436 104.775 93.226 104.775 92.4V91.406C104.775 90.58 104.579 90.37 103.389 90.37H101.653V93.436Z" fill="white"/>
<path d="M117.643 91.35C117.643 89.67 118.455 88.858 121.003 88.858H121.087C123.635 88.858 124.433 89.67 124.433 91.35V95.62C124.433 97.3 123.635 98.112 121.087 98.112H121.003C118.455 98.112 117.643 97.3 117.643 95.62V91.35ZM119.183 95.62C119.183 96.432 119.477 96.712 121.003 96.712H121.087C122.613 96.712 122.893 96.432 122.893 95.62V91.35C122.893 90.538 122.613 90.258 121.087 90.258H121.003C119.477 90.258 119.183 90.538 119.183 91.35V95.62Z" fill="white"/>
<path d="M136.08 89.096C136.08 89.026 136.136 88.97 136.22 88.97H137.494C137.564 88.97 137.62 89.026 137.62 89.096V95.62C137.62 96.432 137.914 96.712 139.328 96.712H139.412C140.84 96.712 141.134 96.432 141.134 95.62V89.096C141.134 89.026 141.176 88.97 141.26 88.97H142.535C142.618 88.97 142.674 89.026 142.674 89.096V95.62C142.674 97.3 141.862 98.112 139.412 98.112H139.328C136.892 98.112 136.08 97.3 136.08 95.62V89.096Z" fill="white"/>
<path d="M154.589 98C154.505 98 154.449 97.944 154.449 97.874V89.096C154.449 89.026 154.505 88.97 154.589 88.97H158.103C159.853 88.97 160.651 89.768 160.651 91.406V92.582C160.651 94.22 159.853 95.018 158.103 95.018H155.989V97.874C155.989 97.944 155.933 98 155.863 98H154.589ZM155.989 93.618H157.739C158.915 93.618 159.111 93.394 159.111 92.582V91.406C159.111 90.594 158.915 90.37 157.739 90.37H155.989V93.618Z" fill="white"/>
<path fill-rule="evenodd" clip-rule="evenodd" d="M20.2831 29.401L25.6208 21.9174L11.476 21.6501L0 16.0374L9.3409 29.401H20.2831ZM42.9679 21.6509L37.8972 29.9364H62.1835L86.7367 60.1382V45.9727L66.7205 21.6509H42.9679ZM111.023 40.3588C117.428 40.3588 121.432 41.4278 123.3 43.566C125.168 45.7042 125.969 50.2478 124.901 57.7315C124.901 65.7497 124.1 70.8278 122.232 72.966C120.364 75.1042 115.827 76.1733 108.888 76.1733H107.287H105.686C99.2804 76.1733 95.2771 75.1042 93.4089 72.966C91.5408 70.8278 90.7401 66.2842 90.7401 59.3351V55.5933H100.882V59.6024C100.882 64.6806 101.415 67.6206 102.216 68.6897C103.017 69.7587 105.152 70.2933 108.354 70.2933C111.557 70.2933 113.425 69.7587 114.226 68.6897C115.026 67.6206 115.56 64.146 115.56 58.266C115.56 52.386 115.293 48.9115 114.493 47.8424C113.959 46.7733 111.824 46.2388 108.621 46.2388C105.152 46.2388 103.017 46.7733 102.483 47.8424C102.216 48.3769 101.949 49.446 101.682 51.3169H91.8076C92.3414 47.5751 93.142 44.9024 94.2096 43.566C96.0778 41.4278 100.348 40.3588 107.554 40.3588H109.155H111.023ZM149.988 58.2672L161.998 40.6272H148.654L144.384 47.0417L135.31 60.4054L124.901 75.3726H138.512L143.316 68.4236L148.12 75.3726H161.731L149.988 58.2672ZM62.7176 97.8234H52.8429L81.9332 59.6034L86.7371 65.2162V67.8889L62.7176 97.8234Z" fill="white"/>
</svg>
